<svg width="1440" height="800" viewBox="0 0 1440 800" fill="none" xmlns="http://www.w3.org/2000/svg">
<g clip-path="url(#clip0)">
<rect width="1440" height="800" fill="white"/>
<rect width="1440" height="800" fill="url(#paint0_linear)"/>
<rect width="1440" height="800" fill="#1B2439"/>
<rect width="1440" height="800" fill="url(#paint1_linear)"/>
<path d="M0 0H1440V800H0V0Z" fill="url(#paint2_linear)"/>
<path d="M0 0H1440V800H0V0Z" fill="url(#paint3_linear)"/>
<path d="M0 0H1440V800H0V0Z" fill="url(#paint4_linear)"/>
<g filter="url(#filter0_f)">
<path d="M0 638.454C0 638.454 263 511.999 435 615.993C607 719.986 1045 629.292 1089 373.646C1133 117.999 1460 -14 1460 -14V819.647H0V638.454Z" fill="url(#paint5_linear)"/>
<path d="M0 638.454C0 638.454 263 511.999 435 615.993C607 719.986 1045 629.292 1089 373.646C1133 117.999 1460 -14 1460 -14V819.647H0V638.454Z" fill="url(#paint6_linear)"/>
<path d="M0 638.454C0 638.454 263 511.999 435 615.993C607 719.986 1045 629.292 1089 373.646C1133 117.999 1460 -14 1460 -14V819.647H0V638.454Z" fill="url(#paint7_linear)"/>
</g>
<g opacity="0.03">
<path d="M0 638.454C0 638.454 263 511.999 435 615.993C607 719.986 1045 629.292 1089 373.646C1133 117.999 1460 -14 1460 -14V819.647H0V638.454Z" fill="url(#paint8_linear)"/>
<path d="M0 638.454C0 638.454 263 511.999 435 615.993C607 719.986 1045 629.292 1089 373.646C1133 117.999 1460 -14 1460 -14V819.647H0V638.454Z" fill="url(#paint9_linear)"/>
<path d="M0 638.454C0 638.454 263 511.999 435 615.993C607 719.986 1045 629.292 1089 373.646C1133 117.999 1460 -14 1460 -14V819.647H0V638.454Z" fill="url(#paint10_linear)"/>
</g>
</g>
<defs>
<filter id="filter0_f" x="-30" y="-44" width="1520" height="893.647" filterUnits="userSpaceOnUse" color-interpolation-filters="sRGB">
<feFlood flood-opacity="0" result="BackgroundImageFix"/>
<feBlend mode="normal" in="SourceGraphic" in2="BackgroundImageFix" result="shape"/>
<feGaussianBlur stdDeviation="15" result="effect1_foregroundBlur"/>
</filter>
<linearGradient id="paint0_linear" x1="720" y1="226" x2="720" y2="1074" gradientUnits="userSpaceOnUse">
<stop stop-color="#142025"/>
<stop offset="1"/>
<stop offset="1"/>
</linearGradient>
<linearGradient id="paint1_linear" x1="720" y1="436" x2="1565" y2="972" gradientUnits="userSpaceOnUse">
<stop stop-color="#1B2439"/>
<stop offset="1" stop-color="#121A2E"/>
</linearGradient>
<linearGradient id="paint2_linear" x1="563" y1="1158" x2="562.974" y2="386.005" gradientUnits="userSpaceOnUse">
<stop stop-color="#1B2439"/>
<stop offset="1" stop-color="#121A2E"/>
</linearGradient>
<linearGradient id="paint3_linear" x1="-2.1061e-05" y1="1154" x2="805.167" y2="790.683" gradientUnits="userSpaceOnUse">
<stop stop-color="#EF88A1"/>
<stop offset="0.589374" stop-color="#7F52FF" stop-opacity="0.1"/>
<stop offset="0.811913" stop-color="#121A2E" stop-opacity="0.1"/>
</linearGradient>
<linearGradient id="paint4_linear" x1="1975" y1="-70.0001" x2="1053.54" y2="-215.169" gradientUnits="userSpaceOnUse">
<stop stop-color="#82B7D6"/>
<stop offset="0.666672" stop-color="#3ACFAB" stop-opacity="0.2"/>
<stop offset="1" stop-color="#121A2E" stop-opacity="0.1"/>
</linearGradient>
<linearGradient id="paint5_linear" x1="143.482" y1="432.095" x2="1354.25" y2="681.363" gradientUnits="userSpaceOnUse">
<stop stop-color="#213C80"/>
<stop offset="1" stop-color="#3D4E78" stop-opacity="0"/>
</linearGradient>
<linearGradient id="paint6_linear" x1="-30.2074" y1="1121.64" x2="664.45" y2="696.171" gradientUnits="userSpaceOnUse">
<stop stop-color="#F93866"/>
<stop offset="1" stop-color="#6435E8" stop-opacity="0"/>
</linearGradient>
<linearGradient id="paint7_linear" x1="1905.55" y1="-61.1532" x2="1145.53" y2="648.722" gradientUnits="userSpaceOnUse">
<stop stop-color="#3AA6E2"/>
<stop offset="0.140625" stop-color="#3ACFAB"/>
<stop offset="1" stop-color="#4BF3FE" stop-opacity="0.05"/>
</linearGradient>
<linearGradient id="paint8_linear" x1="143.482" y1="432.095" x2="1354.25" y2="681.363" gradientUnits="userSpaceOnUse">
<stop stop-color="#213C80"/>
<stop offset="1" stop-color="#3D4E78" stop-opacity="0"/>
</linearGradient>
<linearGradient id="paint9_linear" x1="-30.2074" y1="1121.64" x2="664.45" y2="696.171" gradientUnits="userSpaceOnUse">
<stop stop-color="#F93866"/>
<stop offset="1" stop-color="#6435E8" stop-opacity="0"/>
</linearGradient>
<linearGradient id="paint10_linear" x1="1905.55" y1="-61.1532" x2="1145.53" y2="648.722" gradientUnits="userSpaceOnUse">
<stop stop-color="#3AA6E2"/>
<stop offset="0.140625" stop-color="#3ACFAB"/>
<stop offset="1" stop-color="#4BF3FE" stop-opacity="0.05"/>
</linearGradient>
<clipPath id="clip0">
<rect width="1440" height="800" fill="white"/>
</clipPath>
</defs>
</svg>
