<?xml version="1.0" standalone="no"?>
<!DOCTYPE svg PUBLIC "-//W3C//DTD SVG 20010904//EN"
 "http://www.w3.org/TR/2001/REC-SVG-20010904/DTD/svg10.dtd">
<svg version="1.0" xmlns="http://www.w3.org/2000/svg"
 width="132.000000pt" height="123.000000pt" viewBox="0 0 132.000000 123.000000"
 preserveAspectRatio="xMidYMid meet">
<metadata>
Created by potrace 1.16, written by Peter Selinger 2001-2019
</metadata>
<g transform="translate(0.000000,123.000000) scale(0.100000,-0.100000)"
fill="#000000" stroke="none">
<path d="M385 1153 c-71 -19 -101 -85 -92 -206 3 -45 9 -90 12 -99 5 -12 1
-20 -11 -24 -155 -50 -234 -116 -234 -196 0 -68 81 -146 192 -185 l49 -18 -8
-65 c-13 -117 -4 -175 34 -221 68 -81 152 -72 281 30 28 23 54 41 58 41 3 0
31 -20 62 -44 104 -82 193 -99 251 -50 50 41 59 113 38 278 -1 15 13 25 67 47
91 38 134 72 157 124 38 86 -10 160 -148 226 -68 32 -83 44 -78 57 17 43 17
150 1 199 -42 127 -149 143 -281 43 -34 -26 -67 -50 -74 -54 -6 -4 -32 11 -59
35 -70 62 -162 97 -217 82z m374 -352 c29 -29 94 -150 94 -174 0 -25 -75 -155
-101 -174 -10 -8 -49 -13 -104 -13 -79 0 -91 3 -111 23 -26 25 -97 149 -97
168 0 19 90 168 108 179 10 5 56 10 105 10 72 0 90 -3 106 -19z"/>
<path d="M568 770 c-23 -14 -78 -112 -78 -140 0 -29 56 -127 80 -140 10 -6 48
-10 85 -10 77 0 94 13 135 100 l24 52 -29 56 c-45 86 -54 92 -132 92 -38 0
-76 -5 -85 -10z m153 -61 c51 -54 51 -104 0 -158 -40 -43 -100 -44 -141 -2
-52 51 -52 111 0 162 41 42 101 41 141 -2z"/>
</g>
</svg>
